name D:\school\WTK\thesis\model\3dpredictsim\Results\MidTarsalJoint\Fal_s1_bCst_PF_linear_ls150_MT_k300_MTP_T5_ig23.mot
datacolumns 128
datarows 4
range 0.00000000 0.03416624
endheader
time	pelvis_tilt	pelvis_list	pelvis_rotation	pelvis_tx	pelvis_ty	pelvis_tz	hip_flexion_l	hip_adduction_l	hip_rotation_l	hip_flexion_r	hip_adduction_r	hip_rotation_r	knee_angle_l	knee_angle_r	ankle_angle_l	ankle_angle_r	subtalar_angle_l	subtalar_angle_r	mtj_angle_l	mtj_angle_r	mtp_angle_l	mtp_angle_r	lumbar_extension	lumbar_bending	lumbar_rotation	arm_flex_l	arm_add_l	arm_rot_l	arm_flex_r	arm_add_r	arm_rot_r	elbow_flex_l	elbow_flex_r	pro_sup_l	pro_sup_r	glut_med1_l/activation	glut_med2_l/activation	glut_med3_l/activation	glut_min1_l/activation	glut_min2_l/activation	glut_min3_l/activation	semimem_l/activation	semiten_l/activation	bifemlh_l/activation	bifemsh_l/activation	sar_l/activation	add_long_l/activation	add_brev_l/activation	add_mag1_l/activation	add_mag2_l/activation	add_mag3_l/activation	tfl_l/activation	pect_l/activation	grac_l/activation	glut_max1_l/activation	glut_max2_l/activation	glut_max3_l/activation	iliacus_l/activation	psoas_l/activation	quad_fem_l/activation	gem_l/activation	peri_l/activation	rect_fem_l/activation	vas_med_l/activation	vas_int_l/activation	vas_lat_l/activation	med_gas_l/activation	lat_gas_l/activation	soleus_l/activation	tib_post_l/activation	flex_dig_l/activation	flex_hal_l/activation	tib_ant_l/activation	per_brev_l/activation	per_long_l/activation	per_tert_l/activation	ext_dig_l/activation	ext_hal_l/activation	ercspn_l/activation	intobl_l/activation	extobl_l/activation	glut_med1_r/activation	glut_med2_r/activation	glut_med3_r/activation	glut_min1_r/activation	glut_min2_r/activation	glut_min3_r/activation	semimem_r/activation	semiten_r/activation	bifemlh_r/activation	bifemsh_r/activation	sar_r/activation	add_long_r/activation	add_brev_r/activation	add_mag1_r/activation	add_mag2_r/activation	add_mag3_r/activation	tfl_r/activation	pect_r/activation	grac_r/activation	glut_max1_r/activation	glut_max2_r/activation	glut_max3_r/activation	iliacus_r/activation	psoas_r/activation	quad_fem_r/activation	gem_r/activation	peri_r/activation	rect_fem_r/activation	vas_med_r/activation	vas_int_r/activation	vas_lat_r/activation	med_gas_r/activation	lat_gas_r/activation	soleus_r/activation	tib_post_r/activation	flex_dig_r/activation	flex_hal_r/activation	tib_ant_r/activation	per_brev_r/activation	per_long_r/activation	per_tert_r/activation	ext_dig_r/activation	ext_hal_r/activation	ercspn_r/activation	intobl_r/activation	extobl_r/activation	
          0.00000000	         -2.92951151	         -2.13121141	          5.40657059	          0.00000000	          0.91958465	         -0.00201901	        -16.61182757	         -1.09506303	          7.03183681	         29.54375397	          3.37465697	         -1.86752835	         -7.84252783	        -11.22281557	         -2.23775526	          6.18584139	          9.73100385	         -4.89451352	          5.31462712	         -0.09708753	         12.50092710	         -0.99096434	         -2.01607723	          0.29518604	         -1.98795299	          5.31971907	        -13.45201976	         16.86404302	         -4.54729151	        -13.45561127	          7.72297767	         33.74547059	         15.84434652	         86.51662706	         86.51662706	          0.31375375	          0.10525858	          0.08381781	          0.30894968	          0.21234038	          0.11920965	          0.05000040	          0.05000008	          0.05000005	          0.05910099	          0.11917405	          0.05000002	          0.05000003	          0.05000004	          0.05000014	          0.05000012	          0.33219936	          0.05000012	          0.05000009	          0.05013445	          0.05000254	          0.05000039	          0.41985302	          0.63007803	          0.05000006	          0.05000037	          0.06431972	          0.24894131	          0.05000052	          0.05000029	          0.05000026	          0.29598832	          0.40299436	          0.34155982	          0.26424993	          0.25917612	          0.34467600	          0.05000002	          0.05834058	          0.13417229	          0.05000011	          0.05000003	          0.05000013	          0.05000000	          0.05000000	          0.05000001	          0.07841336	          0.05000017	          0.05949061	          0.05000004	          0.05000006	          0.05000042	          0.11359988	          0.05949072	          0.21481848	          0.05000032	          0.05000018	          0.10334000	          0.18524380	          0.20988969	          0.16705786	          0.10427966	          0.05949060	          0.05000125	          0.12522411	          0.05949078	          0.05949083	          0.10437832	          0.05000002	          0.05000004	          0.21479968	          0.05000160	          0.05000022	          0.05000003	          0.05688198	          0.05934282	          0.05001828	          0.05949059	          0.05949052	          0.05949060	          0.05000039	          0.05000035	          0.05000061	          0.47264710	          0.29645737	          0.18229750	          0.08539729	          0.45975961	          0.05000061	          0.05949062	          0.13255783	          0.10905766	
          0.01138875	         -2.92961030	         -2.22406855	          5.69402454	          0.01706120	          0.91868008	         -0.00181851	        -16.56816186	         -1.40745946	          6.82728489	         28.93187548	          3.76878840	         -1.67909914	         -9.59159614	        -11.22336552	         -2.73440238	          5.50598179	         10.73746537	         -5.28682888	          4.42457593	         -0.12595540	         14.20025096	         -0.99547589	         -1.82418401	          0.49296092	         -2.06436794	          5.06256960	        -13.46160490	         17.21189198	         -5.43970579	        -13.45026972	          7.45815766	         34.92845743	         15.47268295	         86.51662706	         86.51662706	          0.26370022	          0.08846654	          0.07044627	          0.25966255	          0.17846545	          0.10019199	          0.05000100	          0.05000021	          0.05000029	          0.05000013	          0.10016214	          0.09411975	          0.07909817	          0.05010384	          0.05000265	          0.05000207	          0.27920319	          0.07388062	          0.05004333	          0.05000106	          0.05000072	          0.05000078	          0.35287330	          0.52956113	          0.05000121	          0.05949023	          0.05949065	          0.20922737	          0.05000101	          0.14481358	          0.13333362	          0.24876889	          0.33870413	          0.30391725	          0.23461647	          0.21782984	          0.28969035	          0.05000001	          0.05000030	          0.13412345	          0.05000006	          0.05000001	          0.05000007	          0.05000001	          0.07430079	          0.05718632	          0.06590401	          0.05000013	          0.05000004	          0.05949068	          0.05861558	          0.05000010	          0.09547715	          0.05000011	          0.18054828	          0.05000008	          0.05000049	          0.11922404	          0.25087658	          0.23116077	          0.16213103	          0.09403103	          0.05000008	          0.07078362	          0.10524717	          0.05000019	          0.05000020	          0.10825189	          0.07078256	          0.07028445	          0.55367304	          0.17591084	          0.15818601	          0.08087876	          0.18822941	          0.18710384	          0.16168796	          0.05000000	          0.05000001	          0.05000000	          0.05000009	          0.05000062	          0.05000057	          0.53329911	          0.24916341	          0.18764482	          0.21041565	          0.48425581	          0.05949090	          0.05000001	          0.11141070	          0.09165954	
          0.02277750	         -2.92582436	         -2.31831660	          5.95172226	          0.03447415	          0.91779555	         -0.00163995	        -16.47641594	         -1.71878735	          6.61437697	         28.19724061	          4.08432559	         -1.42788637	        -11.41583937	        -11.62708113	         -3.34800846	          4.84086487	         11.70114964	         -5.68320619	          3.36909347	         -0.28175977	         15.96572691	         -0.99177321	         -1.60834267	          0.70198667	         -2.12978891	          4.71518582	        -13.46968573	         17.47311541	         -6.36883836	        -13.45154439	          7.23930223	         36.10528308	         15.15480367	         86.51662706	         86.51662706	          0.34030780	          0.07435336	          0.05920789	          0.21823829	          0.14999464	          0.08420824	          0.05000118	          0.05000039	          0.05000024	          0.05000008	          0.08418323	          0.12748583	          0.08604521	          0.05949109	          0.05949100	          0.05949063	          0.23466170	          0.08396465	          0.05944659	          0.05000300	          0.05000355	          0.05949006	          0.29657914	          0.52504325	          0.05829650	          0.05000059	          0.05000007	          0.17584905	          0.09805451	          0.12171147	          0.11206288	          0.20908244	          0.28467019	          0.25543290	          0.19718780	          0.18307921	          0.24347571	          0.05000001	          0.05000016	          0.15926680	          0.05000006	          0.05000003	          0.05000007	          0.05239439	          0.06244748	          0.05949076	          0.24113993	          0.05000006	          0.06121937	          0.05000009	          0.05000004	          0.22444199	          0.10404218	          0.09314913	          0.16196235	          0.05000015	          0.05000096	          0.10020408	          0.21085392	          0.19428343	          0.13626612	          0.10441790	          0.05000021	          0.05949174	          0.08845728	          0.05000045	          0.10651440	          0.09098238	          0.05949060	          0.05907207	          0.46534482	          0.14784756	          0.16548157	          0.06797606	          0.15820092	          0.15725491	          0.13589366	          0.05320342	          0.05436220	          0.05208610	          0.05000017	          0.05000033	          0.05000027	          0.45530601	          0.27907268	          0.15770971	          0.17684777	          0.55840537	          0.05000024	          0.05000000	          0.11922386	          0.07703697	
          0.03416624	         -2.91979765	         -2.41618414	          6.17323957	          0.05206946	          0.91695291	         -0.00146002	        -16.30435217	         -2.02583534	          6.40129658	         27.34788952	          4.34448422	         -1.16622431	        -13.35297743	        -12.00606582	         -4.08818561	          4.23664822	         12.60346045	         -6.08114476	          2.19821849	         -0.21834567	         17.70503075	         -0.96621130	         -1.38571559	          0.92377405	         -2.18521615	          4.30071966	        -13.47913578	         17.65628075	         -7.29390346	        -13.45882275	          7.08267671	         37.26893964	         14.86756114	         86.51662706	         86.51662706	          0.30068119	          0.06249168	          0.05000005	          0.34206513	          0.12606583	          0.07077441	          0.05000089	          0.05000007	          0.05000006	          0.05000014	          0.07077831	          0.10714795	          0.07231833	          0.05000046	          0.05000053	          0.05000020	          0.21101787	          0.07057000	          0.05000023	          0.05000069	          0.05000035	          0.05000021	          0.24926552	          0.49193892	          0.05000004	          0.05000034	          0.05000025	          0.14779563	          0.08241214	          0.13235848	          0.11922612	          0.17572723	          0.23925636	          0.21468333	          0.16573017	          0.15387238	          0.20463373	          0.06788282	          0.10581394	          0.15555028	          0.05000028	          0.10571166	          0.05000061	          0.06399712	          0.05248515	          0.05000012	          0.32045499	          0.26735103	          0.27445020	          0.15376749	          0.21008684	          0.18863679	          0.08744419	          0.07828898	          0.13612428	          0.07303316	          0.05000104	          0.08421840	          0.17721611	          0.16328917	          0.11452748	          0.12717278	          0.05000029	          0.05000107	          0.07434569	          0.19414923	          0.16030917	          0.09929093	          0.05000003	          0.05000003	          0.39110773	          0.12426129	          0.13908220	          0.05713177	          0.13296350	          0.14133294	          0.11421488	          0.05000009	          0.05000020	          0.05000002	          0.05000004	          0.05000010	          0.05000013	          0.57747582	          0.34048259	          0.18249216	          0.49467764	          0.53583915	          0.24233140	          0.06999183	          0.10020394	          0.06474715	
